<?xml version="1.0" encoding="utf-8"?>
<!-- Generator: Adobe Illustrator 24.0.0, SVG Export Plug-In . SVG Version: 6.00 Build 0)  -->
<svg version="1.1" id="Layer_1" xmlns="http://www.w3.org/2000/svg" xmlns:xlink="http://www.w3.org/1999/xlink" x="0px" y="0px"
	 viewBox="0 0 512 512" style="enable-background:new 0 0 512 512;" xml:space="preserve">
<style type="text/css">
	.st0{display:none;fill:#FFFFFF;stroke:#000000;stroke-miterlimit:10;}
	.st1{display:none;}
	.st2{display:inline;fill:#FFFFFF;stroke:#000000;stroke-miterlimit:10;}
	.st3{fill:url(#SVGID_1_);}
	.st4{fill:url(#SVGID_2_);}
	.st5{fill:#4361EE;}
	.st6{fill:#4CC9F0;}
	.st7{fill:url(#SVGID_3_);}
	.st8{fill:url(#SVGID_4_);}
</style>
<path class="st0" d="M231,106L28.2,459c-11.5,20,2.9,44.9,26,44.9h405.6c23.1,0,37.5-24.9,26-44.9L283,106
	C271.5,85.9,242.5,85.9,231,106z"/>
<path class="st0" d="M252.4,259.1L165,410.4c-2.1,3.6,0.5,8,4.6,8h174.7c4.1,0,6.7-4.5,4.6-8l-87.3-151.3
	C259.6,255.5,254.4,255.5,252.4,259.1z"/>
<g class="st1">
	<path class="st2" d="M448.8,465.1h-385c-23.5,0-42.5-19-42.5-42.5v0c0-23.5,19-42.5,42.5-42.5h385c23.5,0,42.5,19,42.5,42.5v0
		C491.3,446.1,472.2,465.1,448.8,465.1z"/>
	<path class="st2" d="M292.6,110.5L100.1,444c-11.7,20.3-37.7,27.3-58.1,15.6l0,0c-20.3-11.7-27.3-37.7-15.6-58.1L218.9,68
		c11.7-20.3,37.7-27.3,58.1-15.6l0,0C297.3,64.2,304.3,90.2,292.6,110.5z"/>
	<path class="st2" d="M411.9,444L219.4,110.5c-11.7-20.3-4.8-46.3,15.6-58.1l0,0c20.3-11.7,46.3-4.8,58.1,15.6l192.5,333.4
		c11.7,20.3,4.8,46.3-15.6,58.1l0,0C449.7,471.3,423.7,464.3,411.9,444z"/>
</g>
<linearGradient id="SVGID_1_" gradientUnits="userSpaceOnUse" x1="122.6909" y1="233.7482" x2="485.3958" y2="443.156">
	<stop  offset="2.770450e-07" style="stop-color:#4361EE"/>
	<stop  offset="3.107645e-03" style="stop-color:#4362EE"/>
	<stop  offset="0.2064" style="stop-color:#4687EF"/>
	<stop  offset="0.4098" style="stop-color:#49A4EF"/>
	<stop  offset="0.611" style="stop-color:#4BB8F0"/>
	<stop  offset="0.8089" style="stop-color:#4CC5F0"/>
	<stop  offset="1" style="stop-color:#4CC9F0"/>
</linearGradient>
<path class="st3" d="M491.2,420.3c0-0.5,0-0.9-0.1-1.4c0-0.8-0.1-1.6-0.2-2.4c-0.1-0.8-0.2-1.6-0.4-2.4c-0.1-0.4-0.1-0.8-0.2-1.2
	c-0.1-0.4-0.2-0.7-0.2-1.1c-0.1-0.5-0.3-1.1-0.4-1.6c-0.1-0.4-0.2-0.8-0.3-1.2c-0.1-0.2-0.1-0.5-0.2-0.7c-0.2-0.5-0.3-1.1-0.5-1.6
	c-0.2-0.5-0.3-0.9-0.5-1.3c-0.3-0.6-0.5-1.2-0.8-1.8c-0.2-0.5-0.5-1-0.8-1.6c0-0.1-0.1-0.1-0.1-0.2c-0.3-0.5-0.6-1.1-0.9-1.6
	l-1.2-2.1c-7.6-11.6-20.7-19.3-35.6-19.3h-73.7H136.9L256,172.9l36.6-63.3c11.7-20.3,4.8-46.3-15.6-58.1c-6.6-3.8-13.7-5.6-20.8-5.7
	h-0.4c-14.7,0-29,7.6-36.9,21.3L26.4,400.5c-11.7,20.3-4.8,46.3,15.6,58.1c6.7,3.9,14,5.7,21.2,5.7c1,0,2.1,0,3.1-0.1h379.3h3.1
	c11.7,0,22.4-4.8,30-12.5c0.4-0.4,0.8-0.8,1.2-1.3c0.3-0.3,0.5-0.6,0.8-0.9c0.4-0.5,0.8-0.9,1.2-1.4c0.2-0.3,0.5-0.6,0.7-0.9
	c0.4-0.5,0.7-1,1.1-1.5c0.2-0.3,0.4-0.5,0.5-0.8c0,0,0-0.1,0.1-0.1c0.3-0.5,0.7-1,1-1.6c0,0,0,0,0,0c0,0,0,0,0,0
	c0.3-0.5,0.6-1,0.9-1.6c0,0,0,0,0,0c0.3-0.6,0.6-1.1,0.9-1.7c0-0.1,0.1-0.1,0.1-0.2c0,0,0.1-0.1,0.1-0.1c0.2-0.3,0.3-0.7,0.5-1
	c0.1-0.1,0.1-0.3,0.2-0.4c0,0,0-0.1,0-0.1c0.1-0.3,0.3-0.6,0.4-0.9c0.2-0.4,0.3-0.8,0.5-1.3c0.1-0.4,0.3-0.7,0.4-1
	c0-0.1,0.1-0.2,0.1-0.2c0.5-1.5,0.9-3,1.2-4.6c0.1-0.3,0.1-0.7,0.2-1v0c0.1-0.3,0.1-0.7,0.2-1c0-0.4,0.1-0.7,0.1-1.1
	c0.1-0.6,0.1-1.1,0.2-1.6c0-0.3,0-0.5,0.1-0.8c0-0.3,0-0.6,0-0.8c0-0.3,0-0.6,0-0.9c0-0.4,0-0.8,0-1.3
	C491.3,421.2,491.3,420.7,491.2,420.3z"/>
<linearGradient id="SVGID_2_" gradientUnits="userSpaceOnUse" x1="200.3228" y1="142.5622" x2="507.7755" y2="320.0701">
	<stop  offset="2.770450e-07" style="stop-color:#4361EE"/>
	<stop  offset="0.1017" style="stop-color:#4573EE"/>
	<stop  offset="0.3056" style="stop-color:#49A3EF"/>
	<stop  offset="0.452" style="stop-color:#4CC9F0"/>
	<stop  offset="1" style="stop-color:#4CC9F0;stop-opacity:0"/>
</linearGradient>
<path class="st4" d="M293.1,67c-7.9-13.6-22.2-21.3-36.9-21.3c7.1,0.1,14.2,1.9,20.8,5.7c20.3,11.7,27.3,37.7,15.6,58.1L256,172.9
	l119.1,206.2h73.7c2,0,3.9,0.1,5.8,0.4h18.9L293.1,67z"/>
<rect x="-194.5" y="81.5" class="st5" width="32" height="32"/>
<rect x="-159" y="82" class="st6" width="32" height="32"/>
<linearGradient id="SVGID_3_" gradientUnits="userSpaceOnUse" x1="-124" y1="98" x2="-92" y2="98">
	<stop  offset="2.770450e-07" style="stop-color:#4361EE"/>
	<stop  offset="1" style="stop-color:#4CC9F0"/>
</linearGradient>
<rect x="-124" y="82" class="st7" width="32" height="32"/>
<linearGradient id="SVGID_4_" gradientUnits="userSpaceOnUse" x1="193" y1="198" x2="193" y2="198">
	<stop  offset="2.770450e-07" style="stop-color:#4361EE"/>
	<stop  offset="1" style="stop-color:#4CC9F0"/>
</linearGradient>
<path class="st8" d="M193,198"/>
</svg>
