<?xml version="1.0" encoding="utf-8"?>
<!-- Generator: Adobe Illustrator 24.0.0, SVG Export Plug-In . SVG Version: 6.00 Build 0)  -->
<svg version="1.1" id="Layer_1" xmlns="http://www.w3.org/2000/svg" xmlns:xlink="http://www.w3.org/1999/xlink" x="0px" y="0px"
	 viewBox="0 0 100 20" style="enable-background:new 0 0 100 20;" xml:space="preserve">
<style type="text/css">
	.st0{fill:#FFFFFF;}
	.st1{fill:url(#SVGID_1_);}
	.st2{fill:url(#SVGID_2_);}
	.st3{fill:url(#SVGID_3_);}
	.st4{fill:url(#SVGID_4_);}
	.st5{fill:url(#SVGID_5_);}
	.st6{fill:none;stroke:#FF0000;stroke-miterlimit:10;}
</style>
<rect class="st0" width="100" height="20"/>
<g>
	
		<linearGradient id="SVGID_1_" gradientUnits="userSpaceOnUse" x1="10.8764" y1="-60.8446" x2="7.1236" y2="-71.1554" gradientTransform="matrix(1 0 0 -1 0 -56)">
		<stop  offset="0" style="stop-color:#EE2581"/>
		<stop  offset="1.331947e-07" style="stop-color:#F72585"/>
		<stop  offset="1" style="stop-color:#FB852B"/>
	</linearGradient>
	<path class="st1" d="M12.5,14.5h-7c-0.6,0-1-0.4-1-1v-7c0-0.6,0.4-1,1-1h7c0.6,0,1,0.4,1,1v7C13.5,14.1,13.1,14.5,12.5,14.5z"/>
</g>
<g>
	<g>
		
			<linearGradient id="SVGID_2_" gradientUnits="userSpaceOnUse" x1="40.486" y1="-63.1877" x2="38.3939" y2="-68.9358" gradientTransform="matrix(1 0 0 -1 0 -56)">
			<stop  offset="0" style="stop-color:#EE2581"/>
			<stop  offset="1.331947e-07" style="stop-color:#F72585"/>
			<stop  offset="1" style="stop-color:#FB852B"/>
		</linearGradient>
		<path class="st2" d="M42.9,12H36c-0.6,0-1-0.4-1-1V9.1c0-0.6,0.4-1,1-1h6.9c0.6,0,1,0.4,1,1V11C43.9,11.6,43.4,12,42.9,12z"/>
	</g>
	<g>
		
			<linearGradient id="SVGID_3_" gradientUnits="userSpaceOnUse" x1="50.9994" y1="-63.1668" x2="48.9072" y2="-68.9149" gradientTransform="matrix(1 0 0 -1 0 -56)">
			<stop  offset="0" style="stop-color:#EE2581"/>
			<stop  offset="1.331947e-07" style="stop-color:#F72585"/>
			<stop  offset="1" style="stop-color:#FB852B"/>
		</linearGradient>
		<path class="st3" d="M53.4,12h-6.9c-0.6,0-1-0.4-1-1V9.1c0-0.6,0.4-1,1-1h6.9c0.6,0,1,0.4,1,1V11C54.4,11.6,54,12,53.4,12z"/>
	</g>
	<g>
		
			<linearGradient id="SVGID_4_" gradientUnits="userSpaceOnUse" x1="61.5944" y1="-63.06" x2="59.5023" y2="-68.8081" gradientTransform="matrix(1 0 0 -1 0 -56)">
			<stop  offset="0" style="stop-color:#EE2581"/>
			<stop  offset="1.331947e-07" style="stop-color:#F72585"/>
			<stop  offset="1" style="stop-color:#FB852B"/>
		</linearGradient>
		<path class="st4" d="M64,11.9h-6.9c-0.6,0-1-0.4-1-1V9c0-0.6,0.4-1,1-1H64c0.6,0,1,0.4,1,1v1.9C65,11.4,64.6,11.9,64,11.9z"/>
	</g>
</g>
<linearGradient id="SVGID_5_" gradientUnits="userSpaceOnUse" x1="93.816" y1="-62.6602" x2="90.8427" y2="-70.8295" gradientTransform="matrix(1 0 0 -1 0 -56)">
	<stop  offset="0" style="stop-color:#EE2581"/>
	<stop  offset="1.331947e-07" style="stop-color:#F72585"/>
	<stop  offset="1" style="stop-color:#FB852B"/>
</linearGradient>
<path class="st5" d="M91.6,10c1.1,0,2-0.9,2-2s-0.9-2-2-2s-2,0.9-2,2S90.4,10,91.6,10z M93,10.5h-0.3c-0.3,0.2-0.7,0.3-1.1,0.3
	s-0.8-0.1-1.1-0.3h-0.3c-1.2,0-2.1,0.9-2.1,2.1v0.7c0,0.4,0.3,0.8,0.8,0.8h5.5c0.4,0,0.8-0.3,0.8-0.8v-0.7
	C95.1,11.5,94.1,10.5,93,10.5z"/>
<line class="st6" x1="50" y1="2" x2="50" y2="18"/>
</svg>
