<?xml version="1.0" encoding="utf-8"?>
<!-- Generator: Adobe Illustrator 24.0.0, SVG Export Plug-In . SVG Version: 6.00 Build 0)  -->
<svg version="1.1" id="Layer_1" xmlns="http://www.w3.org/2000/svg" xmlns:xlink="http://www.w3.org/1999/xlink" x="0px" y="0px"
	 viewBox="0 0 100 20" style="enable-background:new 0 0 100 20;" xml:space="preserve">
<style type="text/css">
	.st0{fill:#FFFFFF;}
	.st1{fill:url(#SVGID_1_);}
	.st2{fill:url(#SVGID_2_);}
	.st3{fill:url(#SVGID_3_);}
	.st4{fill:url(#SVGID_4_);}
	.st5{fill:url(#SVGID_5_);}
</style>
<rect class="st0" width="100" height="20"/>
<g>
	
		<linearGradient id="SVGID_1_" gradientUnits="userSpaceOnUse" x1="10.8764" y1="17.1554" x2="7.1236" y2="6.8446" gradientTransform="matrix(1 0 0 -1 0 22)">
		<stop  offset="0" style="stop-color:#EE2581"/>
		<stop  offset="1.331947e-07" style="stop-color:#F72585"/>
		<stop  offset="1" style="stop-color:#FB852B"/>
	</linearGradient>
	<path class="st1" d="M12.5,14.5h-7c-0.6,0-1-0.4-1-1v-7c0-0.6,0.4-1,1-1h7c0.6,0,1,0.4,1,1v7C13.5,14.1,13.1,14.5,12.5,14.5z"/>
</g>
<g>
	<g>
		
			<linearGradient id="SVGID_2_" gradientUnits="userSpaceOnUse" x1="58.7991" y1="14.8324" x2="56.707" y2="9.0843" gradientTransform="matrix(1 0 0 -1 0 22)">
			<stop  offset="0" style="stop-color:#EE2581"/>
			<stop  offset="1.331947e-07" style="stop-color:#F72585"/>
			<stop  offset="1" style="stop-color:#FB852B"/>
		</linearGradient>
		<path class="st2" d="M61.2,12h-6.9c-0.6,0-1-0.4-1-1V9.1c0-0.6,0.4-1,1-1h6.9c0.6,0,1,0.4,1,1V11C62.2,11.6,61.8,12,61.2,12z"/>
	</g>
	<g>
		
			<linearGradient id="SVGID_3_" gradientUnits="userSpaceOnUse" x1="69.3906" y1="14.8248" x2="67.2985" y2="9.0767" gradientTransform="matrix(1 0 0 -1 0 22)">
			<stop  offset="0" style="stop-color:#EE2581"/>
			<stop  offset="1.331947e-07" style="stop-color:#F72585"/>
			<stop  offset="1" style="stop-color:#FB852B"/>
		</linearGradient>
		<path class="st3" d="M71.8,12h-6.9c-0.6,0-1-0.4-1-1V9.1c0-0.6,0.4-1,1-1h6.9c0.6,0,1,0.4,1,1V11C72.8,11.6,72.3,12,71.8,12z"/>
	</g>
	<g>
		
			<linearGradient id="SVGID_4_" gradientUnits="userSpaceOnUse" x1="79.986" y1="14.9315" x2="77.8939" y2="9.1834" gradientTransform="matrix(1 0 0 -1 0 22)">
			<stop  offset="0" style="stop-color:#EE2581"/>
			<stop  offset="1.331947e-07" style="stop-color:#F72585"/>
			<stop  offset="1" style="stop-color:#FB852B"/>
		</linearGradient>
		<path class="st4" d="M82.4,11.9h-6.9c-0.6,0-1-0.4-1-1V9c0-0.6,0.4-1,1-1h6.9c0.6,0,1,0.4,1,1v1.9C83.4,11.4,82.9,11.9,82.4,11.9z
			"/>
	</g>
</g>
<linearGradient id="SVGID_5_" gradientUnits="userSpaceOnUse" x1="93.816" y1="15.3398" x2="90.8427" y2="7.1705" gradientTransform="matrix(1 0 0 -1 0 22)">
	<stop  offset="0" style="stop-color:#EE2581"/>
	<stop  offset="1.331947e-07" style="stop-color:#F72585"/>
	<stop  offset="1" style="stop-color:#FB852B"/>
</linearGradient>
<path class="st5" d="M91.6,10c1.1,0,2-0.9,2-2s-0.9-2-2-2s-2,0.9-2,2S90.4,10,91.6,10z M93,10.5h-0.3c-0.3,0.2-0.7,0.3-1.1,0.3
	s-0.8-0.1-1.1-0.3h-0.3c-1.2,0-2.1,0.9-2.1,2.1v0.7c0,0.4,0.3,0.8,0.8,0.8h5.5c0.4,0,0.8-0.3,0.8-0.8v-0.7
	C95.1,11.5,94.1,10.5,93,10.5z"/>
</svg>
